<svg xmlns="http://www.w3.org/2000/svg" width="34" height="33" viewBox="0 0 34 33">
    <path fill="#016FD0" fill-rule="evenodd" d="M34 21.382c0 .82-.547 1.207-1.506 1.207h-1.832v-.82h1.832c.18 0 .312-.029.37-.084a.35.35 0 0 0 .117-.244c0-.114-.057-.229-.118-.273-.06-.059-.163-.085-.338-.085-.87-.03-1.98.03-1.98-1.192 0-.547.368-1.152 1.36-1.152H33.8v.82h-1.753c-.179 0-.297 0-.369.059-.087.085-.148.173-.148.302 0 .144.087.23.19.274.118.03.236.059.369.059h.517c.532 0 .87.114 1.11.302.163.192.285.44.285.827zm-3.992-.834c-.236-.188-.578-.303-1.106-.303h-.517c-.133 0-.251-.03-.37-.059-.102-.044-.193-.13-.193-.273 0-.13.03-.214.148-.303.072-.059.19-.059.369-.059h1.745v-.82h-1.893c-1.02 0-1.361.606-1.361 1.152 0 1.222 1.106 1.163 1.98 1.193.18 0 .282.03.339.085a.38.38 0 0 1 .118.273c0 .1-.061.188-.118.244-.088.059-.194.085-.369.085h-1.829v.826h1.833c.962 0 1.505-.387 1.505-1.207 0-.387-.117-.635-.28-.834zm-3.635 1.251h-2.231v-.775h2.186v-.775h-2.186v-.705h2.231v-.805H23.21v3.85h3.163v-.79zm-4.182-2.875c-.311-.16-.68-.189-1.167-.189h-2.17v3.854h.961v-1.41h1.02c.338 0 .531.03.68.174.163.188.163.517.163.775v.461h.947v-.749c0-.343-.03-.517-.148-.705a.995.995 0 0 0-.487-.332c.266-.085.68-.417.68-1.02-.003-.442-.167-.686-.479-.86zm-5.38-.189h-3.03l-1.227 1.267-1.152-1.267H7.577v3.854h3.768l1.213-1.266 1.167 1.266h1.832v-1.295h1.198c.813 0 1.638-.214 1.638-1.296 0-1.045-.84-1.263-1.581-1.263zm4.612 1.595c-.148.06-.28.06-.456.06l-1.152.029v-.879h1.152c.179 0 .339 0 .456.07.118.06.19.174.19.332a.446.446 0 0 1-.19.388zm-4.611.188h-1.255v-.978h1.255c.342 0 .562.13.562.462 0 .328-.22.516-.562.516zm-3.65.144l1.464-1.51v3.105l-1.464-1.595zM10.858 21.8h-2.35v-.775h2.1v-.775h-2.1v-.705h2.38l1.05 1.122-1.08 1.133zm20.511-5.85h-1.36l-1.788-2.891v2.89h-1.92l-.369-.849h-1.98l-.37.85h-1.105c-.457 0-1.05-.1-1.388-.433-.312-.332-.487-.775-.487-1.465.015-.576.088-1.093.517-1.51.282-.303.799-.447 1.449-.447h.9v.834h-.9c-.339 0-.548.06-.738.214-.178.174-.25.477-.25.879 0 .417.075.72.25.92.133.128.4.188.65.188h.43l1.361-3.035h1.403l1.597 3.636v-3.636h1.463l1.67 2.673v-2.673h.977v3.854h-.012zm-11.246-3.855h-.958v3.854h.958v-3.854zm-2.007.173c-.312-.173-.65-.173-1.137-.173h-2.17v3.854h.927v-1.395h1.019c.338 0 .562.03.71.158.164.203.134.532.134.746v.487h.973v-.76c0-.332-.03-.502-.179-.69a1.14 1.14 0 0 0-.456-.329c.266-.114.68-.417.68-1.023 0-.446-.193-.69-.501-.875zm-3.992 2.887h-2.217v-.775h2.186v-.79h-2.186v-.69h2.217v-.805h-3.178v3.854h3.178v-.794zm-3.886-3.06h-1.55L7.52 14.711l-1.24-2.617H4.76v3.636l-1.627-3.636H1.73l-1.7 3.854h1.02l.353-.849h1.996l.353.85h1.936v-3.02l1.387 3.02h.814l1.388-3.02v3.02h.958v-3.855h.003zm15.352 2.185l-.65-1.524-.65 1.524h1.3zm-8.216-.62c-.148.085-.28.085-.47.085h-1.168v-.849h1.167c.164 0 .354 0 .471.06.118.073.18.187.18.357 0 .163-.062.307-.18.347zm-15.633.62l.666-1.524.65 1.524H1.74zM33.761 0H0v13.888l1.152-2.558h2.467l.339.631v-.631H6.84l.65 1.366.635-1.366h9.189c.43 0 .798.074 1.08.303v-.303h2.528v.303c.414-.23.961-.303 1.581-.303h3.65l.338.631v-.631h2.688l.4.631v-.631h2.63v5.393h-2.657l-.517-.82v.82h-3.312l-.368-.878h-.814l-.369.878h-1.73c-.68 0-1.182-.158-1.52-.332v.332h-4.106v-1.236c0-.174-.03-.2-.149-.2h-.133v1.44H8.6v-.69l-.282.69H6.65l-.28-.66v.66H3.162l-.338-.879H2.01l-.369.879H.004V33h33.764v-9.879c-.353.159-.87.244-1.372.244h-2.468v-.333c-.281.215-.798.333-1.27.333h-7.755v-1.237c0-.174-.03-.174-.18-.174h-.132v1.41h-2.555V21.9c-.43.2-.901.2-1.33.2h-.282v1.266h-3.118l-.737-.835-.825.835H6.737V17.96h5.098l.726.834.799-.834h3.429c.4 0 1.05.06 1.33.332v-.332h3.054c.307 0 .9.06 1.3.332v-.332h4.611v.332c.267-.214.738-.332 1.168-.332h2.57v.332c.281-.188.68-.332 1.197-.332h1.745V0h-.004z"/>
</svg>
