<svg xmlns="http://www.w3.org/2000/svg" width="59" height="33" viewBox="0 0 59 33">
    <g fill="none" fill-rule="nonzero">
        <path fill="#004A97" d="M32.579 23C39.068 23.023 45 17.87 45 11.594 45 4.73 39.068 0 32.579 0h-5.594C20.4 0 15 4.731 15 11.594 15 17.87 20.424 23.024 26.985 23h5.594z"/>
        <path fill="#FFF" d="M29.499 17.72V5.28c2.621.958 4.483 3.367 4.483 6.22-.024 2.83-1.862 5.262-4.483 6.22m-9.481-6.22c0-2.83 1.862-5.262 4.483-6.22v12.44c-2.621-.958-4.483-3.39-4.483-6.22M27 1c-6.076 0-11 4.7-11 10.5S20.924 22 27 22s11-4.7 11-10.5S33.076 1 27 1"/>
        <path fill="#231F20" d="M2.482 31.463c0 .992.727 1.116 1.354 1.116 2.807 0 3.735-2.108 3.735-4.017 0-2.405-1.554-4.14-4.061-4.14-.527 0-.777.05-1.028.05v6.99zm-1.279-6.05c0-1.165-.601-1.09-1.203-1.09V24c.501.025 1.028.025 1.53.025.55 0 1.278-.025 2.256-.025C7.145 24 9 26.231 9 28.512 9 29.777 8.248 33 3.635 33c-.652 0-1.278-.025-1.88-.025C1.178 32.975.602 33 0 33v-.322c.777-.075 1.153-.1 1.203-.967v-6.298zM10.473 25.25c-.375 0-.67-.294-.67-.637 0-.319.322-.613.67-.613.348 0 .67.27.67.613.027.343-.295.638-.67.638zM9 32.707h.268c.375 0 .67 0 .67-.417V28.83c0-.564-.215-.638-.724-.883v-.196c.643-.172 1.42-.417 1.5-.466a.658.658 0 0 1 .241-.073c.08 0 .107.073.107.171v4.88c0 .417.295.417.697.417H12V33c-.482 0-.964-.025-1.446-.025-.51 0-.992.025-1.527.025v-.294H9zM12.805 28.74c0-.48-.138-.606-.69-.858v-.252c.506-.176 1.011-.353 1.563-.63.046 0 .07.025.07.126v.857c.689-.53 1.263-.983 2.068-.983 1.012 0 1.38.807 1.38 1.84v3.378c0 .43.252.43.597.43H18v.327c-.414 0-.828-.025-1.264-.025-.437 0-.85.025-1.288.025v-.328h.207c.345 0 .575 0 .575-.429V28.84c0-.756-.414-1.109-1.104-1.109-.39 0-.988.328-1.379.63v3.883c0 .428.253.428.598.428h.207V33c-.414 0-.828-.025-1.265-.025-.436 0-.85.025-1.287.025v-.328h.207c.345 0 .575 0 .575-.428v-3.505h.023zM22.436 28.886c.333 0 .359-.172.359-.319 0-.636-.41-1.175-1.154-1.175-.82 0-1.359.563-1.538 1.494h2.333zm-2.36.416c-.025.122-.025.294 0 .735.078 1.2.898 2.204 1.95 2.204.743 0 1.307-.392 1.795-.857l.179.171C23.385 32.34 22.641 33 21.538 33 19.41 33 19 31.04 19 30.233 19 27.735 20.744 27 21.692 27c1.077 0 2.231.637 2.257 1.984v.22l-.128.074h-3.744v.024zM24 32.623h.316c.317 0 .565 0 .565-.426V28.53c0-.401-.429-.477-.61-.577v-.2c.859-.403 1.334-.754 1.424-.754.068 0 .113.05.113.176v1.18h.023c.293-.502.79-1.33 1.491-1.33.294 0 .678.225.678.702 0 .351-.226.678-.542.678-.362 0-.362-.301-.769-.301-.203 0-.858.3-.858 1.08v3.062c0 .427.225.427.564.427h.656V33c-.656-.025-1.13-.025-1.65-.025-.474 0-.972.025-1.401.025v-.377zM28.253 31.024c.177.83.709 1.537 1.646 1.537.785 0 1.063-.463 1.063-.902 0-1.488-2.86-1.025-2.86-3.05 0-.707.582-1.609 2.025-1.609.43 0 .987.122 1.493.366l.102 1.293h-.304c-.127-.805-.583-1.244-1.443-1.244-.532 0-1.013.292-1.013.829 0 1.488 3.038 1.024 3.038 3.024 0 .83-.709 1.732-2.253 1.732-.532 0-1.14-.17-1.595-.439L28 31.098l.253-.074zM43.975 26.405h-.32c-.246-1.453-1.304-2.024-2.732-2.024-1.477 0-3.594.952-3.594 3.929 0 2.5 1.846 4.285 3.816 4.285 1.255 0 2.313-.833 2.56-2.143l.295.072-.295 1.81c-.542.333-1.97.666-2.831.666C37.895 33 36 31.143 36 28.357 36 25.833 38.338 24 40.85 24c1.033 0 2.042.333 3.002.667l.123 1.738zM44.027 31.682h.27c.406 0 .676 0 .676-.387v-6.568c0-.772-.216-.795-.757-.909v-.182c.568-.159 1.162-.363 1.433-.5.162-.068.27-.136.297-.136.081 0 .108.068.108.16v8.158c0 .387.297.387.703.387H47V32c-.486 0-.973-.023-1.46-.023-.513 0-1 .023-1.54.023v-.318h.027zM52.163 32.067c0 .227.14.252.349.252H53v.278c-.512.05-1.512.327-1.744.403l-.07-.05v-1.06c-.72.631-1.279 1.11-2.14 1.11-.65 0-1.325-.454-1.325-1.563v-3.353c0-.328-.047-.655-.721-.731V27.1c.442-.025 1.395-.101 1.558-.101.14 0 .14.1.14.378v3.378c0 .404 0 1.513 1.046 1.513.419 0 .954-.328 1.465-.807v-3.53c0-.251-.581-.403-1.023-.529v-.227c1.093-.075 1.767-.176 1.884-.176.093 0 .093.1.093.227v4.84zM54.721 30.504c0 .446.468 1.183 1.304 1.183 1.377 0 1.942-1.228 1.942-2.255 0-1.25-1.057-2.3-2.04-2.3-.468 0-.861.268-1.206.535v2.837zm0-3.15c.517-.401 1.205-.825 1.894-.825 1.475 0 2.385 1.16 2.385 2.434C59 30.48 57.77 32 55.95 32c-.934 0-1.45-.268-1.77-.402l-.393.268-.27-.134c.122-.692.172-1.362.172-2.055v-4.98c0-.759-.197-.781-.689-.893v-.179c.516-.156 1.057-.357 1.303-.491.148-.067.246-.134.27-.134.075 0 .1.067.1.156v4.199h.048z"/>
    </g>
</svg>
