<svg xmlns="http://www.w3.org/2000/svg" width="30" height="20" viewBox="0 0 30 20">
    <g fill="#2196F3" fill-rule="nonzero">
        <path d="M28.75 20H1.25C.5 20 0 19.5 0 18.75V1.25C0 .5.5 0 1.25 0h27.5C29.5 0 30 .5 30 1.25v17.5c0 .75-.5 1.25-1.25 1.25zM2.5 17.5h25v-15h-25v15z"/>
        <path d="M28.75 7.5H1.25C.5 7.5 0 7 0 6.25S.5 5 1.25 5h27.5C29.5 5 30 5.5 30 6.25s-.5 1.25-1.25 1.25zM28.75 10H1.25C.5 10 0 9.5 0 8.75S.5 7.5 1.25 7.5h27.5C29.5 7.5 30 8 30 8.75S29.5 10 28.75 10z"/>
    </g>
</svg>
