<svg xmlns="http://www.w3.org/2000/svg" width="42" height="33" viewBox="0 0 42 33">
    <g fill="none" fill-rule="nonzero">
        <g fill="#1D1D1B">
            <path d="M7.506 29.595a1.293 1.293 0 0 0-.431-.294 1.408 1.408 0 0 0-.547-.104c-.1 0-.216.017-.332.035a1.225 1.225 0 0 0-.331.103c-.1.052-.216.121-.299.19-.1.087-.182.19-.248.312a1.12 1.12 0 0 0-.465-.467 1.29 1.29 0 0 0-.68-.173c-.082 0-.165 0-.265.017-.1.018-.182.052-.265.087a1.06 1.06 0 0 0-.265.155c-.083.07-.15.156-.216.26v-.432H2.45v3.578h.73v-1.988c0-.156.016-.294.066-.398a.965.965 0 0 1 .183-.294.646.646 0 0 1 .265-.172c.1-.035.215-.07.331-.07.25 0 .431.087.564.242.133.156.199.398.199.692v1.988h.73v-1.988c0-.156.016-.294.066-.398a.965.965 0 0 1 .182-.294.646.646 0 0 1 .265-.172c.1-.035.216-.07.332-.07.249 0 .431.087.564.242.132.156.199.398.199.692v1.988h.73v-2.247a1.58 1.58 0 0 0-.1-.57.919.919 0 0 0-.249-.45zM11.336 29.716a1.22 1.22 0 0 0-.448-.38c-.182-.104-.381-.139-.63-.139s-.464.052-.68.138c-.215.087-.381.225-.547.398-.149.173-.282.363-.365.588a2.208 2.208 0 0 0-.132.76c0 .277.05.519.132.76.083.226.216.433.365.589.15.172.332.293.547.397.216.087.431.138.68.138.249 0 .464-.051.63-.138a1.22 1.22 0 0 0 .448-.38v.432h.746v-3.578h-.746v.415zm-.017 1.815a.995.995 0 0 1-.215.363.802.802 0 0 1-.332.242 1.07 1.07 0 0 1-.846 0 1.192 1.192 0 0 1-.331-.242 1.258 1.258 0 0 1-.199-.363 1.34 1.34 0 0 1-.066-.45c0-.155.016-.31.066-.45.05-.137.116-.258.199-.362a.802.802 0 0 1 .331-.242.88.88 0 0 1 .432-.087c.149 0 .298.035.414.087a.926.926 0 0 1 .332.242c.082.104.165.225.215.363.05.138.083.294.083.45 0 .155-.033.31-.083.449zM15.53 31.081c-.215-.173-.497-.276-.879-.345l-.348-.052c-.083-.018-.149-.035-.215-.035a.579.579 0 0 1-.183-.069c-.05-.035-.082-.07-.116-.104-.033-.034-.05-.086-.05-.155a.37.37 0 0 1 .166-.311c.116-.087.266-.121.481-.121.1 0 .216.017.315.034.1.017.2.052.299.07.1.034.182.068.248.103.083.035.133.07.2.104l.314-.605a2.138 2.138 0 0 0-.63-.277 2.718 2.718 0 0 0-.762-.104 2.17 2.17 0 0 0-.597.087 1.23 1.23 0 0 0-.448.225 1.175 1.175 0 0 0-.282.363 1.09 1.09 0 0 0-.1.484c0 .293.1.518.3.691.198.173.48.294.861.346l.365.052c.2.034.348.086.448.138.1.069.149.155.149.26 0 .137-.066.241-.199.31-.133.087-.332.121-.58.121-.133 0-.266-.017-.382-.034a1.245 1.245 0 0 1-.298-.087.851.851 0 0 1-.249-.12c-.066-.053-.132-.087-.199-.139l-.348.588c.116.103.249.173.398.242.133.052.265.103.398.138.133.035.249.052.365.07.116.016.215.016.315.016.248 0 .464-.034.663-.086.199-.052.365-.138.497-.242.133-.104.232-.225.299-.363.066-.138.1-.294.1-.467 0-.328-.1-.57-.316-.726zM22.543 29.716a1.394 1.394 0 0 0-.514-.38 1.63 1.63 0 0 0-.663-.139c-.249 0-.48.052-.696.138-.216.087-.382.225-.547.38-.15.174-.266.364-.349.588a2.208 2.208 0 0 0-.132.761c0 .277.05.536.132.778.083.225.2.432.365.588.15.172.348.293.547.38.216.086.448.138.713.138.265 0 .514-.034.746-.104a1.67 1.67 0 0 0 .663-.397l-.364-.553a1.68 1.68 0 0 1-.481.276c-.166.07-.348.104-.514.104-.116 0-.232-.017-.348-.052a.829.829 0 0 1-.299-.155 1.25 1.25 0 0 1-.232-.277 1.102 1.102 0 0 1-.132-.415h2.536c0-.052.017-.086.017-.138v-.156c0-.276-.033-.536-.116-.76a2.076 2.076 0 0 0-.332-.605zm-2.105 1.054c.016-.12.05-.242.099-.363.05-.104.116-.207.182-.276a.646.646 0 0 1 .266-.173c.1-.035.215-.07.348-.07.232 0 .43.07.58.225.15.156.249.363.282.657h-1.757zM32.474 29.716a1.22 1.22 0 0 0-.448-.38c-.182-.104-.381-.139-.63-.139-.248 0-.464.052-.68.138-.215.087-.38.225-.547.398-.149.173-.281.363-.364.588a2.208 2.208 0 0 0-.133.76c0 .277.05.519.133.76.083.226.215.433.364.589.15.172.332.293.547.397.216.087.432.138.68.138.249 0 .464-.051.63-.138a1.22 1.22 0 0 0 .448-.38v.432h.746v-3.578h-.746v.415zm-.033 1.815a.995.995 0 0 1-.216.363.802.802 0 0 1-.331.242 1.07 1.07 0 0 1-.846 0 1.096 1.096 0 0 1-.332-.242 1.258 1.258 0 0 1-.198-.363 1.34 1.34 0 0 1-.067-.45c0-.155.017-.31.067-.45.05-.137.116-.258.198-.362a.802.802 0 0 1 .332-.242.88.88 0 0 1 .431-.087c.15 0 .299.035.415.087a.926.926 0 0 1 .331.242c.083.104.166.225.216.363.05.138.083.294.083.45 0 .155-.034.31-.083.449zM18.746 32.153a.835.835 0 0 1-.563.035c-.067-.018-.116-.07-.166-.121a.604.604 0 0 1-.116-.208.87.87 0 0 1-.05-.311v-1.556h1.194v-.708H17.85v-1.09h-.762v1.09h-.68v.708h.68v1.573c0 .467.116.83.331 1.055.216.224.514.345.912.345.216 0 .414-.034.58-.103a5.6 5.6 0 0 0 .315-.156l-.248-.657a3.18 3.18 0 0 0-.233.104zM25.494 29.197c-.215 0-.398.035-.564.121-.165.087-.315.277-.43.45V29.3h-.68v3.578h.68v-1.97c0-.156.016-.294.066-.415a.705.705 0 0 1 .165-.294c.067-.087.166-.139.266-.19.1-.035.215-.07.331-.07.083 0 .183.018.299.035.05.017.1.017.149.035l.215-.744c-.066-.017-.116-.034-.182-.052-.1-.017-.199-.017-.315-.017zM35.89 29.197c-.216 0-.399.035-.565.121-.165.087-.315.277-.43.45V29.3h-.68v3.578h.68v-1.97c0-.156.016-.294.066-.415a.705.705 0 0 1 .165-.294c.067-.087.166-.139.266-.19.1-.035.215-.07.331-.07.083 0 .183.018.299.035.05.017.1.017.149.035l.215-.744c-.066-.017-.116-.034-.182-.052-.083-.017-.199-.017-.315-.017zM39.387 27.832v1.884a1.22 1.22 0 0 0-.447-.38c-.183-.104-.382-.139-.63-.139-.249 0-.465.052-.68.138-.216.087-.381.225-.547.398-.15.173-.282.363-.365.588a2.208 2.208 0 0 0-.133.76c0 .277.05.519.133.76.083.226.216.433.365.589.149.172.331.293.547.397.215.087.431.138.68.138.248 0 .464-.051.63-.138a1.22 1.22 0 0 0 .447-.38v.432h.746v-5.03h-.746v-.017zm-.033 3.699a.995.995 0 0 1-.215.363.802.802 0 0 1-.332.242 1.07 1.07 0 0 1-.846 0 1.192 1.192 0 0 1-.331-.242 1.258 1.258 0 0 1-.199-.363 1.34 1.34 0 0 1-.066-.45c0-.155.016-.31.066-.45.05-.137.116-.258.199-.362a.802.802 0 0 1 .331-.242.88.88 0 0 1 .432-.087c.149 0 .298.035.414.087a.926.926 0 0 1 .332.242c.082.104.165.225.215.363.05.138.083.294.083.45 0 .155-.033.31-.083.449zM27.285 30.252c.1-.104.215-.173.348-.242.132-.052.265-.087.43-.087.167 0 .332.035.465.087.133.051.265.12.365.224l.365-.622a1.403 1.403 0 0 0-.465-.277 1.72 1.72 0 0 0-.73-.138c-.264 0-.513.052-.729.138a1.762 1.762 0 0 0-.58.398 1.692 1.692 0 0 0-.381.588c-.1.224-.133.484-.133.743 0 .277.05.519.133.743.1.225.215.432.381.588.166.173.365.294.58.398.232.103.465.138.73.138.265 0 .514-.052.73-.138.165-.07.314-.156.464-.277l-.365-.622a.884.884 0 0 1-.365.224c-.15.052-.298.087-.464.087a1.2 1.2 0 0 1-.431-.087.986.986 0 0 1-.348-.242 1.337 1.337 0 0 1-.232-.363 1.37 1.37 0 0 1 0-.933c.066-.104.132-.225.232-.328z"/>
        </g>
        <path fill="#E20D17" d="M16.139 13.25c0-4.17 1.918-7.87 4.894-10.274A12.736 12.736 0 0 0 13.03.151C5.903.151.132 6.02.132 13.267c0 7.248 5.771 13.116 12.898 13.116 3.026 0 5.804-1.06 8.003-2.825A13.262 13.262 0 0 1 16.14 13.25z"/>
        <path fill="#EA610A" d="M16.139 13.25c0 4.17 1.918 7.87 4.894 10.275a13.168 13.168 0 0 0 4.895-10.275c0-4.17-1.919-7.87-4.895-10.274A13.193 13.193 0 0 0 16.14 13.25z"/>
        <path fill="#F59E00" d="M29.02.151c-3.026 0-5.804 1.06-8.003 2.825A13.168 13.168 0 0 1 25.91 13.25c0 4.17-1.918 7.87-4.894 10.275a12.736 12.736 0 0 0 8.003 2.825c7.126 0 12.897-5.869 12.897-13.116C41.917 5.986 36.147.15 29.02.15z"/>
    </g>
</svg>
