<svg xmlns="http://www.w3.org/2000/svg" width="57" height="19" viewBox="0 0 57 19">
    <g fill="none" fill-rule="evenodd">
        <path fill="#2B3894" d="M25.117 17.793h-4.56l2.85-17.48h4.56l-2.85 17.48zM16.72.313h4.908l-7.255 17.48H9.62L5.66 2.607C3.088 1.065.889.608.889.608L.973.313H8.16c1.978 0 2.163 1.574 2.163 1.574l1.535 7.86.514 2.588L16.72.313zm35.87 17.48l-.534-2.596h-5.798l-.951 2.596h-4.753l6.801-16.178S47.767.313 49.46.313h3.667l3.65 17.48H52.59zM40.91 4.516c-1.95-1.073-6.392-1.327-6.392.65 0 1.975 6.364 2.398 6.364 6.943 0 4.376-4.695 5.985-7.807 5.985s-5.148-.988-5.148-.988l.678-3.924c1.867 1.496 7.525 1.92 7.525-.452 0-2.37-6.308-2.427-6.308-6.943C29.822.987 35.196 0 37.46 0c2.094 0 4.102.762 4.102.762l-.65 3.754zm6.662 7.094h3.745l-1.348-6.542-2.397 6.542z"/>
        <path fill="#F79510" d="M11.858 9.434l-1.535-7.86S10.138 0 8.16 0H.973L.889.296s3.455.714 6.769 3.39c3.167 2.56 4.2 5.748 4.2 5.748"/>
    </g>
</svg>
